<?xml version="1.0" encoding="UTF-8"?>
<svg version="1.1" xmlns="http://www.w3.org/2000/svg" width="1024" height="1024">
<path d="M0 0 C337.92 0 675.84 0 1024 0 C1024 337.92 1024 675.84 1024 1024 C686.08 1024 348.16 1024 0 1024 C0 686.08 0 348.16 0 0 Z " fill="#091117" transform="translate(0,0)"/>
<path d="M0 0 C1.84637692 -0.01265991 1.84637692 -0.01265991 3.73005438 -0.02557558 C5.08778597 -0.01978092 6.44551637 -0.01369992 7.80324554 -0.00736332 C9.25195685 -0.01153734 10.70066488 -0.01701523 12.14936686 -0.02368313 C16.12624469 -0.03814741 20.10291545 -0.03389001 24.07980466 -0.02651632 C28.37026244 -0.02178943 32.66067511 -0.03429019 36.95111847 -0.04453373 C45.35449093 -0.06173589 53.75778867 -0.06255888 62.16117418 -0.05732083 C68.99022135 -0.05328089 75.81924643 -0.05472058 82.64829254 -0.06006908 C83.61989906 -0.06081751 84.59150558 -0.06156593 85.59255472 -0.06233703 C87.56629813 -0.06386849 89.54004154 -0.06540684 91.51378495 -0.066952 C110.0255634 -0.08068192 128.5372996 -0.07523567 147.04907709 -0.06376678 C163.99021683 -0.05383167 180.9312474 -0.06677902 197.8723703 -0.09070098 C215.26349145 -0.11507358 232.65456171 -0.12470452 250.0456996 -0.11804825 C259.81117141 -0.11455222 269.57655921 -0.11681349 279.34201813 -0.13429928 C287.65420859 -0.14899818 295.96625588 -0.14968693 304.27844346 -0.13222837 C308.52022631 -0.12369728 312.76175316 -0.12162005 317.00352287 -0.13687992 C320.88595287 -0.15067433 324.76790626 -0.14603212 328.65030831 -0.12664068 C330.0553394 -0.12286418 331.4604082 -0.12585001 332.86540586 -0.13625234 C345.86647473 -0.22567097 345.86647473 -0.22567097 350.79677582 4.38031673 C356.06898584 9.89411649 355.56067043 16.37952586 355.71474457 23.59906673 C355.74465988 24.88913631 355.7745752 26.17920589 355.80539703 27.50836849 C355.86081027 30.23847128 355.89624472 32.96815024 355.92250824 35.69867611 C355.95338329 38.4753236 356.02954627 41.24472146 356.14809418 44.01898861 C357.16024352 68.20549389 357.16024352 68.20549389 351.61952972 75.16156673 C348.61170678 78.21910871 345.32926947 80.65566194 341.74611664 82.99521542 C338.96197273 84.97348487 336.6900557 87.34710688 334.32508087 89.79907894 C332.58754847 91.59679065 330.75552723 93.23767118 328.85146332 94.85687923 C324.76871461 98.38137053 320.83932911 102.04910766 316.92177582 105.75531673 C311.73803701 110.63764757 306.52263478 115.47294435 301.21083832 120.21625423 C298.4295592 122.70950445 295.67332831 125.22938802 292.92177582 127.75531673 C292.16719086 128.4480267 292.16719086 128.4480267 291.39736176 129.1547308 C290.37446932 130.09406853 289.3516834 131.03352227 288.32900238 131.97309017 C285.8200047 134.27740225 283.30827114 136.57872765 280.79677582 138.88031673 C279.7967623 139.79696866 278.79676231 140.71363533 277.79677582 141.63031673 C271.79677582 147.13031674 271.79677582 147.13031674 270.29555511 148.5062933 C269.29943478 149.41949826 268.30350258 150.33290848 267.30776215 151.24652767 C264.74993751 153.59290994 262.18856005 155.93521948 259.62099457 158.27094173 C254.78135247 162.67959529 250.00428258 167.11607124 245.41786957 171.79047298 C243.70934621 173.46606095 241.93000257 175.01517245 240.10927582 176.56781673 C236.49537869 179.67646999 233.14390756 182.99146319 229.79677582 186.38031673 C225.94556942 190.27929003 222.03255831 193.9885599 217.85536957 197.54047298 C214.3109236 200.70827953 211.02282823 204.13676908 207.70302582 207.53656673 C204.87759306 210.3660186 201.87082055 212.96453836 198.84951019 215.58148861 C195.59163752 218.4363894 192.44624891 221.40694838 189.29677582 224.38031673 C187.89444984 225.69934604 186.49210555 227.01835589 185.08974457 228.33734798 C184.37995453 229.00588802 183.67016449 229.67442806 182.93886566 230.36322689 C172.09289628 240.5762881 161.19665885 250.73195465 150.23329926 260.8187933 C141.72316914 268.65107857 133.27099962 276.54323135 124.84072113 284.46137142 C122.21167025 286.92963945 119.57999932 289.39510358 116.94828033 291.86052608 C110.55566616 297.85007941 104.17108871 303.84809278 97.79286957 309.85297298 C97.01842499 310.58197811 96.24398041 311.31098324 95.44606781 312.06207943 C93.56291078 313.83476179 91.67981429 315.60750843 89.79677582 317.38031673 C91.11483247 317.37993971 92.43288912 317.37956268 93.79088688 317.37917423 C125.0807299 317.37156009 156.37038209 317.39482653 187.66016198 317.45610703 C191.51160771 317.46362305 195.36305389 317.47087854 199.21450043 317.47797298 C199.98125225 317.47938974 200.74800407 317.48080649 201.5379908 317.48226617 C213.95224879 317.50458314 226.36642365 317.5057957 238.7806961 317.49920537 C251.51943554 317.49291269 264.25800017 317.50930783 276.99668688 317.54675281 C284.85688257 317.56914288 292.71668003 317.57384797 300.57688885 317.55591337 C306.6047355 317.54405561 312.63205777 317.56376771 318.65985107 317.5952692 C321.13217467 317.6032445 323.60455569 317.60096426 326.07685661 317.58770847 C329.45142401 317.57114366 332.82384615 317.59137978 336.19828033 317.62082577 C337.17786416 317.60723967 338.15744798 317.59365357 339.16671616 317.57965577 C345.09048584 317.68018912 348.25724103 318.73940788 352.54047292 322.89920509 C354.8428825 325.61361867 354.93344964 327.53649311 354.97377777 331.01019955 C354.98661301 331.97169918 354.99944824 332.93319881 355.01267242 333.9238348 C355.02005936 334.96650509 355.02744629 336.00917538 355.03505707 337.08344173 C355.04312881 338.153988 355.05120056 339.22453426 355.05951691 340.32752132 C355.0733656 342.59721917 355.08408422 344.8669379 355.09194183 347.13666439 C355.10913731 350.60240024 355.15301546 354.06717806 355.19716644 357.53266048 C355.20729473 359.73708055 355.21581041 361.94150873 355.22255707 364.14594173 C355.24006516 365.1805151 355.25757324 366.21508846 355.27561188 367.28101254 C355.25749392 373.31363836 354.85043798 376.80686051 350.79677582 381.38031673 C345.77151555 385.17490101 342.27402109 386.50432126 336.04078197 386.5117445 C334.22949024 386.51750622 334.22949024 386.51750622 332.38160676 386.52338433 C331.03470077 386.52260405 329.68779484 386.52172526 328.34088898 386.52075863 C326.91539422 386.5233416 325.48990019 386.52635457 324.06440717 386.52976203 C320.13782073 386.53784319 316.21125256 386.53962222 312.28465879 386.5403595 C308.05346839 386.5422081 303.82228751 386.54975444 299.5911026 386.55649471 C290.33497554 386.57008627 281.07885281 386.57610398 271.82271743 386.58050537 C266.04541097 386.58326629 260.26810618 386.58750335 254.49080086 386.59200954 C238.50148848 386.60420306 222.51217745 386.61450236 206.52286053 386.61788464 C204.98734239 386.61821399 204.98734239 386.61821399 203.42080368 386.61854999 C202.39464874 386.61876827 201.36849379 386.61898654 200.31124324 386.61921144 C198.23179511 386.6196549 196.15234699 386.62010147 194.07289886 386.62055111 C193.04141652 386.62077254 192.00993418 386.62099397 190.94719479 386.62122211 C174.22898136 386.62517113 157.5108115 386.64262797 140.7926149 386.66591063 C123.63664095 386.68961052 106.48068886 386.70208586 89.32469827 386.70325255 C79.68885795 386.70417006 70.05307439 386.70994136 60.41724968 386.72807217 C52.21297782 386.74345475 44.00878026 386.74860451 35.80449673 386.74033406 C31.61745063 386.73642107 27.43055424 386.73738871 23.24352646 386.75139141 C19.41101857 386.76409146 15.57877348 386.76296733 11.74626616 386.7508007 C10.35931095 386.74883692 8.97233737 386.75195348 7.58540799 386.76064506 C5.70040009 386.77171072 3.81530575 386.7624744 1.93029308 386.75225353 C0.88313175 386.75285062 -0.16402959 386.75344771 -1.24292308 386.75406289 C-6.02400625 386.15043799 -10.03395718 384.20974325 -13.01572418 380.38031673 C-18.62504825 372.68752944 -16.9095315 361.05422215 -17.10263824 351.90668392 C-17.16914855 349.40964178 -17.26438509 346.91318269 -17.38974762 344.41840267 C-18.46435336 322.58357567 -18.46435336 322.58357567 -12.95127106 315.44086361 C-9.39092318 311.59454269 -5.42073559 308.46509825 -1.20322418 305.38031673 C0.31042808 304.0625024 1.81563469 302.73456883 3.29677582 301.38031673 C3.89490082 300.87500423 4.49302582 300.36969173 5.10927582 299.84906673 C7.54643646 297.72783432 9.77198374 295.41454328 12.03505707 293.11078548 C13.79119158 291.38580192 15.61041977 289.78849209 17.48427582 288.19281673 C21.09817193 285.08416435 24.44965657 281.76918365 27.79677582 278.38031673 C31.73348078 274.39451037 35.7358162 270.5889277 40.00380707 266.95453548 C42.45983629 264.79815253 44.71871126 262.46893955 47.00771332 260.13812923 C49.546433 257.643754 52.23789452 255.34244738 54.93740082 253.02484798 C56.59694267 251.55705992 58.14035815 250.04179695 59.67177582 248.44281673 C61.79677582 246.38031673 61.79677582 246.38031673 63.79677582 246.38031673 C64.04427582 245.76156673 64.29177582 245.14281673 64.54677582 244.50531673 C66.02448344 241.99321377 67.23632759 241.6192433 69.79677582 240.38031673 C70.12677582 239.39031673 70.45677582 238.40031673 70.79677582 237.38031673 C71.45677582 237.38031673 72.11677582 237.38031673 72.79677582 237.38031673 C72.79677582 236.72031673 72.79677582 236.06031673 72.79677582 235.38031673 C74.31194338 234.05340646 75.88763233 232.79547841 77.48427582 231.56781673 C82.6956839 227.41077859 87.3911353 222.94727338 92.02797699 218.16229916 C95.46203082 214.63731329 99.04437657 211.36960315 102.76821136 208.15277767 C106.04347738 205.29100956 109.19754043 202.30376699 112.35927582 199.31781673 C113.758896 198.00128354 115.1586386 196.68488047 116.55849457 195.36859798 C117.26151703 194.70682552 117.96453949 194.04505306 118.68886566 193.36322689 C126.77490734 185.75669105 134.87505032 178.17353406 143.15224457 170.77484798 C147.15826542 167.14753516 151.09863958 163.45077338 155.04311371 159.75678158 C159.78555626 155.3167678 164.56056787 150.91382969 169.34999847 146.52460384 C173.13347737 143.03969569 176.76766577 139.43882239 180.30849457 135.70844173 C181.79677582 134.38031673 181.79677582 134.38031673 183.79677582 134.38031673 C184.12677582 133.39031673 184.45677582 132.40031673 184.79677582 131.38031673 C186.36318207 129.83734798 186.36318207 129.83734798 188.35927582 128.19281673 C192.19063106 124.96205232 195.67748979 121.51151939 199.13271332 117.88422298 C200.79677582 116.38031673 200.79677582 116.38031673 202.79677582 116.38031673 C202.79677582 115.72031673 202.79677582 115.06031673 202.79677582 114.38031673 C204.26552582 112.89984798 204.26552582 112.89984798 206.29677582 111.19281673 C207.02509613 110.57277767 207.75341644 109.95273861 208.50380707 109.31391048 C209.26048676 108.67582455 210.01716644 108.03773861 210.79677582 107.38031673 C215.28617488 103.5146733 219.65675088 99.62384229 223.79677582 95.38031673 C228.16619006 90.91612127 232.59076508 86.61156046 237.33315277 82.54486752 C240.46013809 79.79748353 243.51290644 76.97457669 246.56630707 74.14594173 C247.16688934 73.59051693 247.76747162 73.03509212 248.38625336 72.46283627 C249.85695436 71.10256582 251.32693787 69.7415197 252.79677582 68.38031673 C252.251018 68.37971965 251.70526018 68.37912256 251.14296424 68.37850738 C218.8012286 68.34261813 186.45960544 68.28598646 154.11795979 68.20239578 C150.2351827 68.19237825 146.35240519 68.18253414 142.46962738 68.1727972 C141.69663202 68.17085583 140.92363665 68.16891446 140.12721719 68.16691425 C127.60884639 68.13588805 115.09049393 68.11891188 102.57209192 68.10712251 C89.72828966 68.09471416 76.88458367 68.06721993 64.04084218 68.02570367 C56.11470686 68.00055915 48.1887312 67.98720014 40.26255544 67.98888716 C34.18606273 67.98892042 28.10982774 67.96797076 22.03339577 67.9391489 C19.53969142 67.93061656 17.04595305 67.92892243 14.55224037 67.93451405 C11.15144989 67.94112498 7.75163658 67.92330154 4.35094452 67.89929867 C2.86552668 67.91093929 2.86552668 67.91093929 1.3501004 67.92281508 C-4.34829721 67.85145566 -7.70526422 67.22979278 -12.20322418 63.38031673 C-16.97622208 58.14156342 -16.78898241 53.23830368 -16.73447418 46.50531673 C-16.73830109 45.4626263 -16.74212799 44.41993587 -16.74607086 43.34564877 C-16.74878597 41.14690844 -16.74145303 38.9481356 -16.72470856 36.74945736 C-16.70329422 33.39130027 -16.72452497 30.03528258 -16.75009918 26.67719173 C-16.74745584 24.53656203 -16.74233072 22.39593365 -16.73447418 20.25531673 C-16.74257111 19.25516537 -16.75066803 18.255014 -16.75901031 17.22455502 C-16.68223145 11.49336878 -16.2907018 7.7575655 -12.20322418 3.38031673 C-7.98101198 0.88101001 -4.88588609 0.00474036 0 0 Z " fill="#FDFDFD" transform="translate(356.2032241821289,318.61968326568604)"/>
<path d="M0 0 C1.58139267 -0.00043808 1.58139267 -0.00043808 3.19473267 -0.00088501 C6.66848063 0.00050482 10.1420123 0.01604992 13.61572266 0.03173828 C16.02853274 0.03546964 18.44134435 0.03831603 20.85415649 0.04031372 C27.19663699 0.04794048 33.53902551 0.06758087 39.88146973 0.08972168 C46.3566768 0.11020065 52.83189877 0.11931983 59.30712891 0.12939453 C72.00638684 0.15082757 84.7055811 0.18456621 97.40478516 0.22705078 C97.40478516 0.88705078 97.40478516 1.54705078 97.40478516 2.22705078 C95.93603516 3.67236328 95.93603516 3.67236328 93.90478516 5.35205078 C90.29264583 8.41728169 86.94424497 11.63261026 83.65478516 15.03955078 C81.71370582 16.92671125 79.72976771 18.68588173 77.67822266 20.44970703 C72.45953278 24.98007179 67.68841691 29.92630482 62.87744141 34.88134766 C62.19810547 35.57164062 61.51876953 36.26193359 60.81884766 36.97314453 C60.20992676 37.59890381 59.60100586 38.22466309 58.97363281 38.86938477 C57.40478516 40.22705078 57.40478516 40.22705078 55.40478516 40.22705078 C55.07478516 41.21705078 54.74478516 42.20705078 54.40478516 43.22705078 C52.94384766 44.66455078 52.94384766 44.66455078 51.02978516 46.22705078 C46.78514551 49.80269831 42.92277416 53.66709627 39.08691406 57.67041016 C37.89553111 58.89212233 36.6537623 60.0642825 35.40478516 61.22705078 C34.74478516 61.22705078 34.08478516 61.22705078 33.40478516 61.22705078 C33.40478516 61.88705078 33.40478516 62.54705078 33.40478516 63.22705078 C31.90087891 64.70751953 31.90087891 64.70751953 29.84228516 66.41455078 C27.07939835 68.75984836 24.43798759 71.13534483 21.90478516 73.72705078 C19.63465933 76.03780526 17.31354021 78.1960672 14.84228516 80.28955078 C10.20742104 84.27390765 5.95273237 88.62428574 1.67993164 92.98901367 C-1.29280272 96.00581994 -4.31470992 98.89247134 -7.52490234 101.65673828 C-11.80494971 105.35098639 -15.76246707 109.31804582 -19.72021484 113.35205078 C-29.34277752 123.15790036 -29.34277752 123.15790036 -33.59521484 126.22705078 C-37.68377855 124.86419621 -38.34603407 122.94309885 -40.25549316 119.21403503 C-45.10227614 108.4078619 -46.19879359 97.62392594 -46.12646484 85.89501953 C-46.12917129 84.48309565 -46.13306316 83.07117361 -46.13806152 81.65925598 C-46.14389307 78.73057946 -46.1355965 75.80239744 -46.11669922 72.8737793 C-46.09380579 69.14746538 -46.10713721 65.4222979 -46.13098907 61.69602489 C-46.14553077 58.79178924 -46.14080498 55.88782006 -46.13047791 52.98357582 C-46.12783913 51.61025157 -46.13097817 50.2369019 -46.14039612 48.86360741 C-46.18549963 40.45070757 -45.43031071 33.76984052 -41.59521484 26.22705078 C-41.15177734 25.31310547 -40.70833984 24.39916016 -40.25146484 23.45751953 C-37.11834873 17.92164207 -34.09744835 12.71179867 -28.59521484 9.22705078 C-27.93521484 9.22705078 -27.27521484 9.22705078 -26.59521484 9.22705078 C-26.59521484 8.56705078 -26.59521484 7.90705078 -26.59521484 7.22705078 C-25.05622924 6.43018472 -23.513877 5.63981938 -21.97021484 4.85205078 C-21.11169922 4.41119141 -20.25318359 3.97033203 -19.36865234 3.51611328 C-12.71014906 0.42131598 -7.24430864 -0.05270682 0 0 Z " fill="#283037" transform="translate(384.59521484375,435.77294921875)"/>
<path d="M0 0 C6.14112016 2.63379938 9.40163776 8.4151087 12.25 14.25 C16.78651387 25.70177648 16.31312916 37.93144242 16.26074219 50.04492188 C16.25002291 52.99369876 16.26068505 55.94186659 16.2734375 58.890625 C16.2892438 77.50456156 14.92068116 92.71863705 1.4140625 106.8125 C-9.57436861 116.7696544 -23.12503751 120.17224036 -37.58544922 120.11352539 C-38.53242172 120.11367142 -39.47939423 120.11381744 -40.45506287 120.1139679 C-43.57162806 120.11327364 -46.6881328 120.10550406 -49.8046875 120.09765625 C-51.97087573 120.09579034 -54.13706437 120.09436725 -56.30325317 120.09336853 C-61.99468152 120.08955698 -67.68608421 120.07973832 -73.37750244 120.06866455 C-79.18916476 120.05842114 -85.00083125 120.05386463 -90.8125 120.04882812 C-102.20834459 120.03811482 -113.60417016 120.02105476 -125 120 C-125 118 -125 118 -123.49609375 116.484375 C-122.81675781 115.91203125 -122.13742187 115.3396875 -121.4375 114.75 C-120.34308594 113.81607422 -120.34308594 113.81607422 -119.2265625 112.86328125 C-117.8495867 111.71096993 -116.46991142 110.56186556 -115.0859375 109.41796875 C-112.28856828 107.08272 -109.90233077 104.88229606 -107.5625 102.0625 C-104.99231654 98.99081733 -102.30339012 96.52928475 -99.26171875 93.9453125 C-95.79284512 90.96172171 -92.45639528 87.83340677 -89.1015625 84.72265625 C-87 83 -87 83 -85 83 C-84.7525 82.4225 -84.505 81.845 -84.25 81.25 C-82.81700012 78.67060021 -81.21575324 76.93878408 -79 75 C-78.34 75 -77.68 75 -77 75 C-77 74.34 -77 73.68 -77 73 C-75.70703125 71.73046875 -75.70703125 71.73046875 -73.8125 70.1875 C-69.83023259 66.81353631 -66.16096601 63.21270738 -62.5 59.5 C-58.41450403 55.36663168 -54.28985501 51.38651761 -49.84765625 47.6328125 C-46.96031014 45.08120431 -44.32052217 42.29265973 -41.6640625 39.50390625 C-40 38 -40 38 -38 38 C-38 37.34 -38 36.68 -38 36 C-36.61914062 34.64257812 -36.61914062 34.64257812 -34.65625 33.03125 C-29.30451548 28.48039125 -24.429042 23.49975997 -19.5 18.5 C-13.51352707 12.42763794 -7.49166705 6.53120905 -1 1 C-0.67 0.67 -0.34 0.34 0 0 Z " fill="#273036" transform="translate(697,469)"/>
<path d="M0 0 C0.33 0.66 0.66 1.32 1 2 C-3.15655666 6.97615938 -7.54708502 11.72488028 -12.0625 16.375 C-12.5565332 16.89868164 -13.05056641 17.42236328 -13.55957031 17.96191406 C-16.80087865 21.25470578 -19.51682574 22.89419476 -24 24 C-22.9254319 20.77629571 -22.3944369 20.25431079 -19.875 18.1875 C-15.45356927 14.44628938 -11.22471475 10.52223793 -7 6.5625 C-6.31663574 5.92272217 -5.63327148 5.28294434 -4.92919922 4.6237793 C-3.28515631 3.08355535 -1.64206983 1.54232692 0 0 Z " fill="#D5DCE3" transform="translate(599,396)"/>
<path d="M0 0 C-1.40200667 4.4609303 -3.59783406 6.84677303 -7 10 C-7.495 10.53625 -7.99 11.0725 -8.5 11.625 C-10 13 -10 13 -12.375 14.3125 C-15.70728217 16.4546814 -17.57348245 18.88019172 -20 22 C-21.32 21.67 -22.64 21.34 -24 21 C-23.24976563 20.32195313 -22.49953125 19.64390625 -21.7265625 18.9453125 C-20.69213715 18.00583686 -19.65832845 17.06568198 -18.625 16.125 C-18.08568848 15.63410889 -17.54637695 15.14321777 -16.99072266 14.63745117 C-12.48508745 10.50695476 -8.19714797 6.20835946 -3.9609375 1.80078125 C-2 0 -2 0 0 0 Z " fill="#D9DEE4" transform="translate(392,591)"/>
<path d="M0 0 C0.66 0.33 1.32 0.66 2 1 C0.10858512 3.08749458 -1.78787968 5.1699937 -3.6875 7.25 C-4.21794922 7.83652344 -4.74839844 8.42304688 -5.29492188 9.02734375 C-8.33187694 12.3437732 -11.38634348 15.29143371 -15 18 C-15.33 17.01 -15.66 16.02 -16 15 C-15.32626343 14.37170288 -15.32626343 14.37170288 -14.63891602 13.73071289 C-12.61327169 11.84149326 -10.58788262 9.9520002 -8.5625 8.0625 C-7.85544922 7.40314453 -7.14839844 6.74378906 -6.41992188 6.06445312 C-5.74638672 5.43603516 -5.07285156 4.80761719 -4.37890625 4.16015625 C-3.7557251 3.57886963 -3.13254395 2.99758301 -2.49047852 2.39868164 C-1.65000401 1.609971 -0.81500364 0.81500364 0 0 Z " fill="#141A1D" transform="translate(674,422)"/>
<path d="M0 0 C0.33 0.66 0.66 1.32 1 2 C0.34 2 -0.32 2 -1 2 C-1 2.99 -1 3.98 -1 5 C-3.30078125 7.15625 -3.30078125 7.15625 -6.3125 9.5 C-10.85221141 13.0317947 -10.85221141 13.0317947 -15 17 C-15.66 16.67 -16.32 16.34 -17 16 C-14.88094537 13.82722286 -12.75527122 11.66173092 -10.625 9.5 C-10.02171875 8.87996094 -9.4184375 8.25992187 -8.796875 7.62109375 C-8.21679688 7.03457031 -7.63671875 6.44804687 -7.0390625 5.84375 C-6.50490723 5.29912109 -5.97075195 4.75449219 -5.42041016 4.19335938 C-4 3 -4 3 -2 3 C-2 2.34 -2 1.68 -2 1 C-1.34 0.67 -0.68 0.34 0 0 Z " fill="#DBE0E6" transform="translate(561,432)"/>
<path d="M0 0 C0.66 0.99 1.32 1.98 2 3 C1.071875 3.5775 0.14375 4.155 -0.8125 4.75 C-3.59815842 6.71634712 -5.18738696 8.18037972 -7 11 C-7.99 10.67 -8.98 10.34 -10 10 C-6.7 6.7 -3.4 3.4 0 0 Z M-12 11 C-11.34 11.33 -10.68 11.66 -10 12 C-11.65 13.65 -13.3 15.3 -15 17 C-15.66 16.67 -16.32 16.34 -17 16 C-15.35 14.35 -13.7 12.7 -12 11 Z " fill="#DBDDE5" transform="translate(367,613)"/>
<path d="M0 0 C0.99 0.495 0.99 0.495 2 1 C1.01 1.495 1.01 1.495 0 2 C0 1.34 0 0.68 0 0 Z M-2 2 C-1.34 2.33 -0.68 2.66 0 3 C-5.91684902 11.50765864 -5.91684902 11.50765864 -10.4375 13.5625 C-11.283125 13.706875 -12.12875 13.85125 -13 14 C-12.34 13.01 -11.68 12.02 -11 11 C-10.34 11 -9.68 11 -9 11 C-8.7525 10.38125 -8.505 9.7625 -8.25 9.125 C-6.77229238 6.61289704 -5.56044823 6.23892656 -3 5 C-2.67 4.01 -2.34 3.02 -2 2 Z " fill="#CCD2D5" transform="translate(429,554)"/>
<path d="M0 0 C0 4.10589421 -1.42485131 5.8680624 -4 9 C-6.75 9.375 -6.75 9.375 -9 9 C-8.06725891 7.87105124 -7.12859878 6.74699124 -6.1875 5.625 C-5.66542969 4.99851562 -5.14335937 4.37203125 -4.60546875 3.7265625 C-3 2 -3 2 0 0 Z " fill="#DAE0E4" transform="translate(408,575)"/>
<path d="M0 0 C-1.1858237 3.37503669 -2.27573689 5.64722731 -5 8 C-5.99 7.34 -6.98 6.68 -8 6 C-7.0479279 4.99403703 -6.08812654 3.99538437 -5.125 3 C-4.59132813 2.443125 -4.05765625 1.88625 -3.5078125 1.3125 C-2 0 -2 0 0 0 Z " fill="#D1D8DB" transform="translate(392,591)"/>
<path d="M0 0 C0 3.96130371 -1.34877125 4.82914401 -4 7.6875 C-4.7425 8.49574219 -5.485 9.30398438 -6.25 10.13671875 C-6.8275 10.75160156 -7.405 11.36648438 -8 12 C-8.33 11.01 -8.66 10.02 -9 9 C-6.03 6.03 -3.06 3.06 0 0 Z " fill="#E9EEF1" transform="translate(349,630)"/>
<path d="M0 0 C0.99 0 1.98 0 3 0 C1.95125002 2.62187494 1.35068687 3.79371361 -1.125 5.25 C-1.74375 5.4975 -2.3625 5.745 -3 6 C-2.42655063 3.13275314 -2.1385485 2.1385485 0 0 Z " fill="#E2E8EB" transform="translate(383,598)"/>
<path d="M0 0 C0.33 0.99 0.66 1.98 1 3 C-1.97 5.475 -1.97 5.475 -5 8 C-5.66 7.67 -6.32 7.34 -7 7 C-4.69 4.69 -2.38 2.38 0 0 Z " fill="#1D2122" transform="translate(516,569)"/>
<path d="M0 0 C0.66 0.33 1.32 0.66 2 1 C0.02 3.31 -1.96 5.62 -4 8 C-4.66 7.34 -5.32 6.68 -6 6 C-4.02 4.02 -2.04 2.04 0 0 Z " fill="#1D2022" transform="translate(598,492)"/>
<path d="M0 0 C0 3 0 3 -1.3125 4.38671875 C-2.875 5.59114583 -4.4375 6.79557292 -6 8 C-6.66 7.67 -7.32 7.34 -8 7 C-5.36 4.69 -2.72 2.38 0 0 Z " fill="#1D2226" transform="translate(459,623)"/>
<path d="M0 0 C0.33 0.66 0.66 1.32 1 2 C0.34 2 -0.32 2 -1 2 C-1 2.99 -1 3.98 -1 5 C-3.5 6.6875 -3.5 6.6875 -6 8 C-6 7.01 -6 6.02 -6 5 C-4.68 4.34 -3.36 3.68 -2 3 C-2 2.34 -2 1.68 -2 1 C-1.34 0.67 -0.68 0.34 0 0 Z " fill="#CDD0D7" transform="translate(561,432)"/>
<path d="M0 0 C0.66 0.99 1.32 1.98 2 3 C1.34 3 0.68 3 0 3 C-0.66 4.65 -1.32 6.3 -2 8 C-3.32 7.34 -4.64 6.68 -6 6 C-5.195625 5.38125 -4.39125 4.7625 -3.5625 4.125 C-0.96125481 2.25835959 -0.96125481 2.25835959 0 0 Z " fill="#1F2327" transform="translate(709,696)"/>
<path d="M0 0 C0.33 0.99 0.66 1.98 1 3 C-0.32 4.32 -1.64 5.64 -3 7 C-3.99 6.67 -4.98 6.34 -6 6 C-4.02 4.02 -2.04 2.04 0 0 Z " fill="#232728" transform="translate(503,581)"/>
</svg>
